<?xml version="1.0" encoding="UTF-8" ?>
<svg version="1.1" width="160" height="128" xmlns="http://www.w3.org/2000/svg" shape-rendering="crispEdges">
<rect x="12" y="4" width="8" height="24" fill="#1E66F5" />
<rect x="44" y="4" width="8" height="24" fill="#1E66F5" />
<rect x="108" y="4" width="8" height="24" fill="#1E66F5" />
<rect x="140" y="4" width="8" height="24" fill="#1E66F5" />
<rect x="8" y="6" width="4" height="20" fill="#1E66F5" />
<rect x="20" y="6" width="4" height="20" fill="#1E66F5" />
<rect x="40" y="6" width="4" height="20" fill="#1E66F5" />
<rect x="52" y="6" width="4" height="20" fill="#1E66F5" />
<rect x="104" y="6" width="4" height="20" fill="#1E66F5" />
<rect x="116" y="6" width="4" height="20" fill="#1E66F5" />
<rect x="136" y="6" width="4" height="20" fill="#1E66F5" />
<rect x="148" y="6" width="4" height="20" fill="#1E66F5" />
<rect x="6" y="8" width="2" height="16" fill="#1E66F5" />
<rect x="24" y="8" width="2" height="16" fill="#1E66F5" />
<rect x="38" y="8" width="2" height="16" fill="#1E66F5" />
<rect x="56" y="8" width="2" height="16" fill="#1E66F5" />
<rect x="102" y="8" width="2" height="16" fill="#1E66F5" />
<rect x="120" y="8" width="2" height="16" fill="#1E66F5" />
<rect x="134" y="8" width="2" height="16" fill="#1E66F5" />
<rect x="152" y="8" width="2" height="16" fill="#1E66F5" />
<rect x="4" y="12" width="2" height="8" fill="#1E66F5" />
<rect x="26" y="12" width="2" height="8" fill="#1E66F5" />
<rect x="36" y="12" width="2" height="8" fill="#1E66F5" />
<rect x="58" y="12" width="2" height="8" fill="#1E66F5" />
<rect x="100" y="12" width="2" height="8" fill="#1E66F5" />
<rect x="122" y="12" width="2" height="8" fill="#1E66F5" />
<rect x="132" y="12" width="2" height="8" fill="#1E66F5" />
<rect x="154" y="12" width="2" height="8" fill="#1E66F5" />
<rect x="12" y="36" width="8" height="24" fill="#1E66F5" />
<rect x="44" y="36" width="8" height="24" fill="#1E66F5" />
<rect x="76" y="36" width="8" height="24" fill="#1E66F5" />
<rect x="108" y="36" width="8" height="24" fill="#1E66F5" />
<rect x="140" y="36" width="8" height="24" fill="#1E66F5" />
<rect x="8" y="38" width="4" height="20" fill="#1E66F5" />
<rect x="20" y="38" width="4" height="20" fill="#1E66F5" />
<rect x="40" y="38" width="4" height="20" fill="#1E66F5" />
<rect x="52" y="38" width="4" height="20" fill="#1E66F5" />
<rect x="72" y="38" width="4" height="20" fill="#1E66F5" />
<rect x="84" y="38" width="4" height="20" fill="#1E66F5" />
<rect x="104" y="38" width="4" height="20" fill="#1E66F5" />
<rect x="116" y="38" width="4" height="20" fill="#1E66F5" />
<rect x="136" y="38" width="4" height="20" fill="#1E66F5" />
<rect x="148" y="38" width="4" height="20" fill="#1E66F5" />
<rect x="6" y="40" width="2" height="16" fill="#1E66F5" />
<rect x="24" y="40" width="2" height="16" fill="#1E66F5" />
<rect x="38" y="40" width="2" height="16" fill="#1E66F5" />
<rect x="56" y="40" width="2" height="16" fill="#1E66F5" />
<rect x="70" y="40" width="2" height="16" fill="#1E66F5" />
<rect x="88" y="40" width="2" height="16" fill="#1E66F5" />
<rect x="102" y="40" width="2" height="16" fill="#1E66F5" />
<rect x="120" y="40" width="2" height="16" fill="#1E66F5" />
<rect x="134" y="40" width="2" height="16" fill="#1E66F5" />
<rect x="152" y="40" width="2" height="16" fill="#1E66F5" />
<rect x="4" y="44" width="2" height="8" fill="#1E66F5" />
<rect x="26" y="44" width="2" height="8" fill="#1E66F5" />
<rect x="36" y="44" width="2" height="8" fill="#1E66F5" />
<rect x="58" y="44" width="2" height="8" fill="#1E66F5" />
<rect x="68" y="44" width="2" height="8" fill="#1E66F5" />
<rect x="90" y="44" width="2" height="8" fill="#1E66F5" />
<rect x="100" y="44" width="2" height="8" fill="#1E66F5" />
<rect x="122" y="44" width="2" height="8" fill="#1E66F5" />
<rect x="132" y="44" width="2" height="8" fill="#1E66F5" />
<rect x="154" y="44" width="2" height="8" fill="#1E66F5" />
<rect x="44" y="68" width="8" height="24" fill="#1E66F5" />
<rect x="76" y="68" width="8" height="24" fill="#1E66F5" />
<rect x="108" y="68" width="8" height="24" fill="#1E66F5" />
<rect x="40" y="70" width="4" height="20" fill="#1E66F5" />
<rect x="52" y="70" width="4" height="20" fill="#1E66F5" />
<rect x="72" y="70" width="4" height="20" fill="#1E66F5" />
<rect x="84" y="70" width="4" height="20" fill="#1E66F5" />
<rect x="104" y="70" width="4" height="20" fill="#1E66F5" />
<rect x="116" y="70" width="4" height="20" fill="#1E66F5" />
<rect x="38" y="72" width="2" height="16" fill="#1E66F5" />
<rect x="56" y="72" width="2" height="16" fill="#1E66F5" />
<rect x="70" y="72" width="2" height="16" fill="#1E66F5" />
<rect x="88" y="72" width="2" height="16" fill="#1E66F5" />
<rect x="102" y="72" width="2" height="16" fill="#1E66F5" />
<rect x="120" y="72" width="2" height="16" fill="#1E66F5" />
<rect x="36" y="76" width="2" height="8" fill="#1E66F5" />
<rect x="58" y="76" width="2" height="8" fill="#1E66F5" />
<rect x="68" y="76" width="2" height="8" fill="#1E66F5" />
<rect x="90" y="76" width="2" height="8" fill="#1E66F5" />
<rect x="100" y="76" width="2" height="8" fill="#1E66F5" />
<rect x="122" y="76" width="2" height="8" fill="#1E66F5" />
<rect x="76" y="100" width="8" height="24" fill="#1E66F5" />
<rect x="72" y="102" width="4" height="20" fill="#1E66F5" />
<rect x="84" y="102" width="4" height="20" fill="#1E66F5" />
<rect x="70" y="104" width="2" height="16" fill="#1E66F5" />
<rect x="88" y="104" width="2" height="16" fill="#1E66F5" />
<rect x="68" y="108" width="2" height="8" fill="#1E66F5" />
<rect x="90" y="108" width="2" height="8" fill="#1E66F5" />
</svg>